HIERARCHY
ROOT Hips
{
  OFFSET 50.4504 84.1035 7.06329
  CHANNELS 6 Xposition Yposition Zposition Zrotation Xrotation Yrotation
  JOINT spine
  {
    OFFSET 0 5.95438 0.342407
    CHANNELS 3 Zrotation Xrotation Yrotation
    JOINT spine1
    {
      OFFSET 0 8.85602 0
      CHANNELS 3 Zrotation Xrotation Yrotation
      JOINT spine2
      {
        OFFSET 0 8.48567 0
        CHANNELS 3 Zrotation Xrotation Yrotation
        JOINT Neck
        {
          OFFSET 0 21.7863 1.0387
          CHANNELS 3 Zrotation Xrotation Yrotation
          JOINT Head
          {
            OFFSET 0 6.5822 0
            CHANNELS 3 Zrotation Xrotation Yrotation
            End Site
            {
              OFFSET 0 15.9326 -5.25436
            }
          }
        }
        JOINT RightShoulder
        {
          OFFSET -3.57307 9.16386 -0.497525
          CHANNELS 3 Zrotation Xrotation Yrotation
          JOINT RightArm
          {
            OFFSET 0 12.0192 0
            CHANNELS 3 Zrotation Xrotation Yrotation
            JOINT RightArmRoll
            {
              OFFSET 0 6.06754 0
              CHANNELS 3 Zrotation Xrotation Yrotation
              JOINT RightForeArm
              {
                OFFSET 0 17.6726 0
                CHANNELS 3 Zrotation Xrotation Yrotation
                JOINT RightForeArmRoll
                {
                  OFFSET 0 6.80872 0
                  CHANNELS 3 Zrotation Xrotation Yrotation
                  JOINT RightHand
                  {
                    OFFSET 0 13.6636 0
                    CHANNELS 3 Zrotation Xrotation Yrotation
                    End Site
                    {
                      OFFSET 0 0 0
                    }
                  }
                }
              }
            }
          }
        }
        JOINT LeftShoulder
        {
          OFFSET 3.57307 9.16386 -0.497525
          CHANNELS 3 Zrotation Xrotation Yrotation
          JOINT LeftArm
          {
            OFFSET 0 12.0192 0
            CHANNELS 3 Zrotation Xrotation Yrotation
            JOINT LeftArmRoll
            {
              OFFSET 0 6.06754 0
              CHANNELS 3 Zrotation Xrotation Yrotation
              JOINT LeftForeArm
              {
                OFFSET 0 17.6726 0
                CHANNELS 3 Zrotation Xrotation Yrotation
                JOINT LeftForeArmRoll
                {
                  OFFSET 0 6.80872 0
                  CHANNELS 3 Zrotation Xrotation Yrotation
                  JOINT LeftHand
                  {
                    OFFSET 0 13.6636 0
                    CHANNELS 3 Zrotation Xrotation Yrotation
                    End Site
                    {
                      OFFSET 0 0 0
                    }
                  }
                }
              }
            }
          }
        }
      }
    }
  }
  JOINT RightUpLeg
  {
    OFFSET -5.27774 -0.967797 -0.811858
    CHANNELS 3 Zrotation Xrotation Yrotation
    JOINT RightUpLegRoll
    {
      OFFSET 0 16.0214 0
      CHANNELS 3 Zrotation Xrotation Yrotation
      JOINT RightLeg
      {
        OFFSET 0 -19.8401 0
        CHANNELS 3 Zrotation Xrotation Yrotation
        JOINT RightLegRoll
        {
          OFFSET 0 19.905 0
          CHANNELS 3 Zrotation Xrotation Yrotation
          JOINT RightFoot
          {
            OFFSET 0 16.5675 0
            CHANNELS 3 Zrotation Xrotation Yrotation
            JOINT RightToeBase
            {
              OFFSET 0 13.8496 0
              CHANNELS 3 Zrotation Xrotation Yrotation
              End Site
              {
                OFFSET 0.00587034 6.70728 -0.773117
              }
            }
          }
        }
      }
    }
  }
  JOINT LeftUpLeg
  {
    OFFSET 5.27774 -0.967797 -0.811858
    CHANNELS 3 Zrotation Xrotation Yrotation
    JOINT LeftUpLegRoll
    {
      OFFSET 0 16.0215 0
      CHANNELS 3 Zrotation Xrotation Yrotation
      JOINT LeftLeg
      {
        OFFSET 0 19.84 0
        CHANNELS 3 Zrotation Xrotation Yrotation
        JOINT LeftLegRoll
        {
          OFFSET 0 20.089 0
          CHANNELS 3 Zrotation Xrotation Yrotation
          JOINT LeftFoot
          {
            OFFSET 0 16.3835 0
            CHANNELS 3 Zrotation Xrotation Yrotation
            JOINT LeftToeBase
            {
              OFFSET 0 13.8496 0
              CHANNELS 3 Zrotation Xrotation Yrotation
              End Site
              {
                OFFSET -0.0263083 6.70727 -0.773117
              }
            }
          }
        }
      }
    }
  }
}
MOTION
Frames: 13
Frame Time: 0.00208333
51.581 83.5927 7.53801 -1.74462 2.84384 95.3014 -0.948256 -2.05415 -0.0250034 -1.89488 -0.114937 0.0385657 -1.89594 1.52961 0.0699753 -37.0907 -19.4983 -14.1172 31.9851 16.361 -18.3229 50.9301 6.02129 5.42189 111.418 81.5216 -28.528 1.58901e-030 -1.43125e-014 6.36111e-015 -3.63779 -0.0289991 -1.99265 -5.82969e-006 8.3823e-006 -3.0116 8.03005 -4.95095 0.697564 -85.5789 -13.873 7.64758 -92.0471 38.5929 -0.481519 -1.90833e-014 -1.94809e-014 2.8625e-014 3.65286 -0.0290176 1.99251 1.01353e-005 1.07655e-005 3.01161 -8.03009 -4.95141 -0.697628 179.619 3.26245 0.683007 180 7.01556e-015 178.963 -178.814 12.622 179.321 7.56188e-006 -6.46743e-007 0.552875 -23.1026 72.447 24.1856 8.13649 25.2324 -3.48773 177.776 15.0842 3.70427 4.54188e-006 -4.6773e-006 -0.814258 -1.08513 -12.5839 0.283824 5.314e-006 -2.06126e-007 -0.102347 18.3161 67.6058 -19.2213 -8.13646 25.2325 3.48769 
51.5599 83.5887 7.52595 -1.74934 2.84716 95.2765 -0.946626 -2.053 -0.0245005 -1.89162 -0.114166 0.0390902 -1.89268 1.53039 0.0700605 -36.9321 -19.4232 -14.0511 31.8771 16.2933 -18.2482 51.1034 6.00953 5.3763 110.975 81.4471 -28.0698 3.97569e-015 -1.11319e-014 -3.18055e-015 -3.6378 -0.029003 -1.99265 -5.82969e-006 8.3823e-006 -3.0116 8.03005 -4.95095 0.697564 -85.4671 -13.8629 7.64805 -92.129 38.4405 -0.445647 -0 -1.07344e-014 -0 3.65334 -0.0290176 1.99251 1.01353e-005 1.07655e-005 3.01161 -8.03009 -4.95141 -0.697628 179.603 3.27441 0.691905 180 7.01556e-015 178.964 -178.822 12.6236 179.321 7.56188e-006 -6.46743e-007 0.553793 -23.1207 72.4605 24.2047 8.13649 25.2324 -3.48773 177.771 15.0844 3.70962 4.54188e-006 -4.6773e-006 -0.813699 -1.0849 -12.5605 0.282762 5.314e-006 -2.06126e-007 -0.102059 18.3096 67.5972 -19.2141 -8.13646 25.2325 3.48769 
51.5489 83.5885 7.51631 -1.75318 2.85056 95.2516 -0.945077 -2.05185 -0.024021 -1.88851 -0.113369 0.0395779 -1.88959 1.53119 0.0701138 -36.7728 -19.3446 -13.9839 31.7694 16.2236 -18.1732 51.2787 5.99842 5.33084 110.53 81.3726 -27.6092 -2.38542e-015 -3.18055e-014 6.36111e-015 -3.63781 -0.0290069 -1.99266 -5.82969e-006 8.3823e-006 -3.0116 8.03005 -4.95095 0.697564 -85.3549 -13.8524 7.64837 -92.2108 38.288 -0.409868 -1.59028e-015 -5.96354e-015 -0 3.65378 -0.0290176 1.99251 1.01353e-005 1.07655e-005 3.01161 -8.03009 -4.95141 -0.697628 179.586 3.28518 0.701116 180 7.01556e-015 178.965 -178.83 12.6248 179.322 7.56188e-006 -6.46743e-007 0.554643 -23.1384 72.4738 24.2232 8.13649 25.2324 -3.48773 177.766 15.0832 3.71447 4.54188e-006 -4.6773e-006 -0.813154 -1.08495 -12.5365 0.281653 5.314e-006 -2.06126e-007 -0.101795 18.3031 67.5887 -19.2069 -8.13646 25.2325 3.48769 
51.5565 83.5767 7.52353 -1.75607 2.8541 95.2267 -0.943571 -2.05068 -0.023562 -1.8855 -0.11247 0.0400394 -1.88658 1.53209 0.0701538 -36.6137 -19.2629 -13.9159 31.6626 16.1527 -18.098 51.4548 5.98761 5.28554 110.089 81.2984 -27.1515 1.59028e-015 -1.90833e-014 -0 -3.63782 -0.0290109 -1.99266 -5.82969e-006 8.3823e-006 -3.0116 8.03005 -4.95095 0.697564 -85.2428 -13.8415 7.64856 -92.2924 38.136 -0.374241 -6.36111e-015 -4.21423e-014 6.36111e-015 3.65418 -0.0290176 1.99251 1.01353e-005 1.07655e-005 3.01161 -8.03009 -4.95141 -0.697628 179.57 3.29495 0.710643 180 7.01557e-015 178.965 -178.838 12.6258 179.322 7.56188e-006 -6.46743e-007 0.555416 -23.1554 72.4865 24.2411 8.13649 25.2324 -3.48773 177.762 15.0805 3.71884 4.54188e-006 -4.6773e-006 -0.812626 -1.0853 -12.5119 0.280509 5.314e-006 -2.06126e-007 -0.101545 18.2967 67.5804 -19.1999 -8.13646 25.2325 3.48769 
51.5378 83.5798 7.51201 -1.75803 2.85779 95.2018 -0.942071 -2.04949 -0.0231209 -1.88249 -0.111391 0.0404851 -1.88358 1.53317 0.0701989 -36.4556 -19.179 -13.8472 31.5569 16.0815 -18.023 51.6304 5.97674 5.24041 109.656 81.2246 -26.7014 -7.95139e-016 -3.81667e-014 -6.36111e-015 -3.63783 -0.0290148 -1.99266 -5.82969e-006 8.3823e-006 -3.0116 8.03005 -4.95095 0.697564 -85.1313 -13.8305 7.64868 -92.3735 37.9848 -0.338823 -4.77083e-015 -1.94809e-014 6.36111e-015 3.65452 -0.0290175 1.99251 1.01353e-005 1.07655e-005 3.01161 -8.03009 -4.95141 -0.697628 179.554 3.30396 0.720489 180 7.01557e-015 178.966 -178.846 12.6267 179.323 7.56188e-006 -6.46743e-007 0.556105 -23.1715 72.4986 24.2582 8.13649 25.2324 -3.48773 177.757 15.0765 3.72274 4.54188e-006 -4.6773e-006 -0.812119 -1.08598 -12.4871 0.279342 5.314e-006 -2.06126e-007 -0.101303 18.2905 67.5723 -19.1932 -8.13646 25.2325 3.48769 
51.529 83.5874 7.50297 -1.75902 2.86167 95.177 -0.940543 -2.04824 -0.0226946 -1.87943 -0.110057 0.0409255 -1.88052 1.53451 0.0702676 -36.2996 -19.0935 -13.7781 31.4528 16.0107 -17.9484 51.8044 5.96548 5.1955 109.236 81.1514 -26.2637 -5.56597e-015 4.77083e-015 3.18055e-015 -3.63784 -0.0290187 -1.99267 -5.82969e-006 8.3823e-006 -3.0116 8.03005 -4.95095 0.697564 -85.021 -13.8196 7.64875 -92.4539 37.8348 -0.30367 -1.43125e-014 -1.39149e-014 1.90833e-014 3.65477 -0.0290175 1.99251 1.01353e-005 1.07655e-005 3.01161 -8.03009 -4.95141 -0.697628 179.537 3.31239 0.730655 180 7.01557e-015 178.967 -178.854 12.6277 179.324 7.56188e-006 -6.46743e-007 0.556699 -23.1866 72.5099 24.274 8.13649 25.2324 -3.48773 177.753 15.0711 3.72617 4.54188e-006 -4.6773e-006 -0.811636 -1.08703 -12.4624 0.278165 5.314e-006 -2.06126e-007 -0.10106 18.2845 67.5644 -19.1866 -8.13646 25.2325 3.48769 
51.5199 83.5946 7.49577 -1.759 2.86576 95.1522 -0.938948 -2.04692 -0.0222804 -1.87624 -0.108392 0.0413711 -1.87734 1.53617 0.0703783 -36.1465 -19.007 -13.7087 31.3506 15.9411 -17.8744 51.9753 5.95347 5.15082 108.834 81.0792 -25.8427 -1.59028e-015 1.43125e-014 3.18055e-015 -3.63786 -0.0290227 -1.99267 -5.82969e-006 8.3823e-006 -3.0116 8.03005 -4.95095 0.697564 -84.9122 -13.8088 7.64881 -92.5335 37.6866 -0.268837 -1.43125e-014 5.96354e-015 2.22639e-014 3.65492 -0.0290175 1.99251 1.01353e-005 1.07655e-005 3.01161 -8.03009 -4.95141 -0.697628 179.52 3.32046 0.741145 180 7.01557e-015 178.967 -178.863 12.6291 179.325 7.56188e-006 -6.46743e-007 0.557189 -23.2004 72.5202 24.2886 8.13649 25.2324 -3.48773 177.749 15.0645 3.72916 4.54188e-006 -4.6773e-006 -0.811179 -1.08849 -12.4379 0.276991 5.314e-006 -2.06126e-007 -0.100809 18.2789 67.557 -19.1804 -8.13646 25.2325 3.48769 
51.4943 83.5841 7.47695 -1.75793 2.87009 95.1276 -0.937251 -2.04551 -0.0218755 -1.87285 -0.106319 0.0418324 -1.87395 1.53825 0.0705497 -35.9972 -18.9202 -13.6393 31.2507 15.8735 -17.8013 52.1421 5.94036 5.1064 108.453 81.0081 -25.443 -7.95139e-016 -1.03368e-014 6.36111e-015 -3.63787 -0.0290266 -1.99267 -5.82969e-006 8.3823e-006 -3.0116 8.03005 -4.95095 0.697564 -84.8055 -13.7984 7.6489 -92.6121 37.5404 -0.23438 -3.18055e-015 -8.34896e-015 6.36111e-015 3.65495 -0.0290175 1.99251 1.01353e-005 1.07655e-005 3.01161 -8.03009 -4.95141 -0.697628 179.503 3.32839 0.75196 180 7.01557e-015 178.968 -178.871 12.631 179.326 7.56188e-006 -6.46743e-007 0.557566 -23.2127 72.5295 24.3016 8.13649 25.2324 -3.48773 177.744 15.0567 3.73171 4.54188e-006 -4.6773e-006 -0.810751 -1.09039 -12.4138 0.27583 5.314e-006 -2.06126e-007 -0.100542 18.2737 67.55 -19.1746 -8.13646 25.2325 3.48769 
51.4886 83.5838 7.47285 -1.75584 2.8747 95.103 -0.935415 -2.044 -0.021477 -1.86917 -0.103762 0.0423199 -1.87028 1.54081 0.0708001 -35.8526 -18.8338 -13.5701 31.1534 15.8087 -17.7293 52.3033 5.92582 5.06227 108.099 80.9384 -25.0685 -4.77083e-015 1.90833e-014 -0 -3.63788 -0.0290305 -1.99268 -5.82969e-006 8.3823e-006 -3.0116 8.03005 -4.95095 0.697564 -84.7015 -13.7886 7.64906 -92.6895 37.3966 -0.200349 -1.27222e-014 -6.75868e-015 1.90833e-014 3.65485 -0.0290175 1.99251 1.01353e-005 1.07655e-005 3.01161 -8.03009 -4.95141 -0.697628 179.486 3.33637 0.763102 180 7.01557e-015 178.969 -178.879 12.6336 179.326 7.56188e-006 -6.46743e-007 0.557822 -23.2234 72.5376 24.3129 8.13649 25.2324 -3.48773 177.74 15.0478 3.73384 4.54188e-006 -4.6773e-006 -0.810356 -1.09276 -12.3905 0.274697 5.314e-006 -2.06126e-007 -0.100252 18.2689 67.5435 -19.1693 -8.13646 25.2325 3.48769 
51.4921 83.589 7.48472 -1.75266 2.8796 95.0786 -0.933404 -2.04235 -0.021082 -1.86515 -0.100646 0.0428439 -1.86626 1.54393 0.071148 -35.7137 -18.7484 -13.5012 31.0592 15.7475 -17.6587 52.4578 5.90949 5.01844 107.776 80.8706 -24.7232 3.18055e-015 -7.95139e-016 3.18055e-015 -3.6379 -0.0290344 -1.99268 -5.82969e-006 8.3823e-006 -3.0116 8.03005 -4.95095 0.697564 -84.6005 -13.7795 7.64934 -92.7655 37.2558 -0.166797 -1.11319e-014 -7.55382e-015 1.90833e-014 3.65459 -0.0290175 1.99251 1.01353e-005 1.07655e-005 3.01161 -8.03009 -4.95141 -0.697628 179.468 3.34463 0.774574 180 7.01557e-015 178.969 -178.887 12.637 179.328 7.56188e-006 -6.46743e-007 0.557946 -23.2322 72.5443 24.3221 8.13649 25.2324 -3.48773 177.735 15.0377 3.73555 4.54188e-006 -4.6773e-006 -0.809996 -1.09565 -12.3681 0.273603 5.314e-006 -2.06126e-007 -0.0999303 18.2645 67.5376 -19.1645 -8.13646 25.2325 3.48769 
51.479 83.5889 7.47901 -1.74782 2.88482 95.0542 -0.931266 -2.04055 -0.0207028 -1.86088 -0.0968587 0.0433838 -1.86199 1.54772 0.0715657 -35.5792 -18.6639 -13.4323 30.9673 15.69 -17.5892 52.6082 5.89193 4.97477 107.476 80.8059 -24.4015 6.36111e-015 2.38542e-015 -0 -3.63791 -0.0290383 -1.99268 -5.82969e-006 8.3823e-006 -3.0116 8.03005 -4.95095 0.697564 -84.5015 -13.7709 7.64971 -92.8407 37.1169 -0.1335 -1.27222e-014 -1.59028e-015 1.27222e-014 3.65415 -0.0290176 1.99251 1.01353e-005 1.07655e-005 3.01161 -8.03009 -4.95141 -0.697628 179.45 3.35243 0.786631 180 7.01557e-015 178.97 -178.895 12.6411 179.329 7.56188e-006 -6.46743e-007 0.557898 -23.2389 72.5494 24.3292 8.13649 25.2324 -3.48773 177.731 15.0256 3.73649 4.54188e-006 -4.6773e-006 -0.809676 -1.0992 -12.3462 0.272521 5.314e-006 -2.06126e-007 -0.0995836 18.2607 67.5323 -19.1602 -8.13646 25.2325 3.48769 
51.4687 83.5972 7.46299 -1.74092 2.89032 95.0295 -0.929083 -2.03856 -0.0203518 -1.85651 -0.0924086 0.043912 -1.85763 1.55217 0.0720114 -35.4476 -18.5793 -13.363 30.877 15.6356 -17.5203 52.758 5.87393 4.93108 107.192 80.745 -24.0935 3.97569e-015 -1.90833e-014 -0 -3.63792 -0.0290422 -1.99269 -5.82969e-006 8.3823e-006 -3.0116 8.03005 -4.95095 0.697564 -84.4032 -13.7625 7.65014 -92.9156 36.9787 -0.100229 -2.06736e-014 -1.74931e-014 3.18055e-014 3.65354 -0.0290176 1.99251 1.01353e-005 1.07655e-005 3.01161 -8.03009 -4.95141 -0.697628 179.431 3.35902 0.799457 180 7.01558e-015 178.97 -178.904 12.6455 179.33 7.56188e-006 -6.46743e-007 0.557656 -23.2436 72.5532 24.3343 8.13649 25.2324 -3.48773 177.727 15.0108 3.73638 4.54188e-006 -4.6773e-006 -0.809394 -1.1035 -12.3244 0.271416 5.314e-006 -2.06126e-007 -0.0992257 18.2573 67.5275 -19.1564 -8.13646 25.2325 3.48769 
51.4576 83.591 7.45729 -1.73223 2.89607 95.0047 -0.926859 -2.03642 -0.020026 -1.85207 -0.0873952 0.0444291 -1.85319 1.55718 0.0724826 -35.3184 -18.4942 -13.2932 30.7881 15.5834 -17.452 52.907 5.85555 4.88743 106.92 80.6873 -23.797 1.59028e-015 -1.90833e-014 6.36111e-015 -3.63794 -0.0290462 -1.99269 -5.82969e-006 8.3823e-006 -3.0116 8.03005 -4.95095 0.697564 -84.3057 -13.7544 7.6506 -92.9902 36.8412 -0.0670268 -7.95139e-015 -5.96354e-015 1.27222e-014 3.65276 -0.0290176 1.99251 1.01353e-005 1.07655e-005 3.01161 -8.03009 -4.95141 -0.697628 179.413 3.36452 0.812947 180 7.01558e-015 178.971 -178.913 12.65 179.332 7.56188e-006 -6.46743e-007 0.557244 -23.2466 72.5557 24.3375 8.13649 25.2324 -3.48773 177.723 14.9936 3.73537 4.54188e-006 -4.6773e-006 -0.809148 -1.10845 -12.3025 0.270291 5.314e-006 -2.06126e-007 -0.0988597 18.2541 67.523 -19.1529 -8.13646 25.2325 3.48769 
